<svg width="28" height="28" viewBox="0 0 28 28" fill="none" xmlns="http://www.w3.org/2000/svg">
<g clip-path="url(#clip0_104_379)">
<rect width="28" height="28" rx="5" fill="white"/>
<g clip-path="url(#clip1_104_379)">
<path d="M27.3472 14.2619C27.3472 13.1148 27.2541 12.2777 27.0527 11.4096H13.9534V16.5872H21.6424C21.4874 17.8739 20.6503 19.8117 18.79 21.1138L18.7639 21.2872L22.9057 24.4957L23.1926 24.5244C25.8279 22.0905 27.3472 18.5095 27.3472 14.2619Z" fill="#4285F4"/>
<path d="M13.9534 27.9038C17.7203 27.9038 20.8827 26.6636 23.1926 24.5244L18.79 21.1138C17.6119 21.9354 16.0306 22.509 13.9534 22.509C10.2639 22.509 7.13248 20.0753 6.01622 16.7113L5.8526 16.7252L1.54594 20.0582L1.48962 20.2147C3.78391 24.7723 8.49657 27.9038 13.9534 27.9038Z" fill="#34A853"/>
<path d="M6.01623 16.7113C5.72169 15.8432 5.55124 14.913 5.55124 13.9519C5.55124 12.9907 5.72169 12.0606 6.00073 11.1925L5.99293 11.0076L1.6323 7.62112L1.48963 7.68899C0.544045 9.58027 0.00146484 11.7041 0.00146484 13.9519C0.00146484 16.1997 0.544045 18.3234 1.48963 20.2147L6.01623 16.7113Z" fill="#FBBC05"/>
<path d="M13.9534 5.3947C16.5732 5.3947 18.3404 6.52635 19.3481 7.47205L23.2856 3.6275C20.8673 1.37969 17.7203 0 13.9534 0C8.49657 0 3.78391 3.1314 1.48962 7.68899L6.00072 11.1925C7.13248 7.82857 10.2639 5.3947 13.9534 5.3947Z" fill="#EB4335"/>
</g>
</g>
<defs>
<clipPath id="clip0_104_379">
<rect width="28" height="28" rx="5" fill="white"/>
</clipPath>
<clipPath id="clip1_104_379">
<rect width="27.3616" height="28" fill="white"/>
</clipPath>
</defs>
</svg>
