<svg width="28" height="28" viewBox="0 0 28 28" fill="none" xmlns="http://www.w3.org/2000/svg">
<rect width="28" height="28" rx="5" fill="white"/>
<g clip-path="url(#clip0_109_363)">
<path d="M18.6515 13.7087C16.0842 12.3135 13.626 11.0308 11.1133 9.69168V17.7029C13.7574 16.2412 16.5445 14.9025 18.6624 13.7087H18.6515Z" fill="white"/>
<path d="M18.6515 13.7087C16.0842 12.3135 11.1133 9.69168 11.1133 9.69168L17.7408 14.2216C17.7408 14.2216 16.5335 14.9025 18.6515 13.7087Z" fill="#E8E0E0"/>
<path d="M11.5964 23.9742C6.26396 23.8743 4.44266 23.7845 3.32318 23.55C2.56578 23.3941 1.9076 23.0481 1.425 22.5463C1.05201 22.1664 0.75539 21.5869 0.52526 20.7829C0.327857 20.1131 0.250974 19.5557 0.141363 18.1944C-0.0264288 15.1219 -0.0664288 12.61 0.141363 9.80331C0.312792 8.25337 0.395909 6.4134 1.53461 5.33995C2.07227 4.83757 2.69773 4.51426 3.40007 4.38061C4.49721 4.16877 9.1715 4.00131 14.0105 4.00131C18.8385 4.00131 23.5232 4.16877 24.6214 4.38061C25.4988 4.54807 26.3216 5.04993 26.8047 5.69706C27.8437 7.359 27.8619 9.4256 27.9673 11.0421C28.011 11.8123 28.011 16.1859 27.9673 16.9561C27.8032 19.5108 27.6712 20.4147 27.2983 21.3518C27.0676 21.9435 26.8707 22.2557 26.5299 22.6017C25.9955 23.1342 25.3141 23.4884 24.5767 23.6171C19.9621 23.97 16.0437 24.0466 11.5964 23.9742ZM18.6629 13.7088C16.0956 12.3137 13.6375 11.0199 11.1247 9.68075V17.6925C13.7689 16.2308 16.5564 14.8916 18.6738 13.6977L18.6629 13.7088Z" fill="#CD201F"/>
</g>
<defs>
<clipPath id="clip0_109_363">
<rect width="28" height="20" fill="white" transform="translate(0 4)"/>
</clipPath>
</defs>
</svg>
